# xmcd
#
# Track frame offsets:
#	150
#	27475
#	52193
#	72565
#	97124
#	115096
#	131334
#	146237
#	167103
#	181479
#	206127
#	227941
#
# Disc length: 3293 seconds
#
# Revision: 1
# Processed by: cddbd v1.5.1PL0 Copyright (c) Steve Scherf et al.
# Submitted via: audiograbber 1.83.01
#
DISCID=bf0cdb0c
DTITLE=Lighnin' Hopkins - Ebbets Field - Denver - 4-24-74
DYEAR=1974
DGENRE=Blues
TTITLE0=Nothing I Can Do
TTITLE1=Lord Have Mercy
TTITLE2=Unknown
TTITLE3=I Got My Hook in Your Water
TTITLE4=Unknown
TTITLE5=Cook My Breakfast
TTITLE6=Mojo Hand
TTITLE7=It's Time for You to Change Your Way
TTITLE8=Unknown
TTITLE9=Rock Me
TTITLE10=Ain't it Crazy (The Rub)
TTITLE11=70 Miles From Nowhere
EXTD=
EXTT0=
EXTT1=
EXTT2=
EXTT3=
EXTT4=
EXTT5=
EXTT6=
EXTT7=
EXTT8=
EXTT9=
EXTT10=
EXTT11=
PLAYORDER=
